PathFileType	4	(X/Y/Z)	C:/Users/Carlo/Dropbox/Carlos/SARAH/CongressoMarcha2025/WorkshopOpenSim/C3D/Caso03/pyCGM2 Static.c3d.trc
DataRate	CameraRate	NumFrames	NumMarkers	Units	OrigDataRate	OrigDataStartFrame	OrigNumFrames
100.000000	100.000000	3	128	mm	100.000000	52	422
Frame#	Time	LASI			RASI			LPSI			RPSI			LTHI			LTHAP			LTHAD			LKNE			LKNM			LTIB			LTIAP			LTIAD			LANK			LMED			LHEE			LTOE			RTHI			RTHAP			RTHAD			RKNE			RKNM			RTIB			RTIAP			RTIAD			RANK			RMED			RHEE			RTOE			PELO			PELA			PELL			PELP			LFEO			LFEA			LFEL			LFEP			LTIO			LTIA			LTIL			LTIP			LFOO			LFOA			LFOL			LFOP			LTOO			LTOA			LTOL			LTOP			RFEO			RFEA			RFEL			RFEP			RTIO			RTIA			RTIL			RTIP			RFOO			RFOA			RFOL			RFOP			RTOO			RTOA			RTOL			RTOP			PELVIS_CGM_2.3O			PELVIS_CGM_2.3A			PELVIS_CGM_2.3L			PELVIS_CGM_2.3P			LFEMUR_CGM_2.3O			LFEMUR_CGM_2.3A			LFEMUR_CGM_2.3L			LFEMUR_CGM_2.3P			LTIBIA_CGM_2.3O			LTIBIA_CGM_2.3A			LTIBIA_CGM_2.3L			LTIBIA_CGM_2.3P			LFOOT_CGM_2.3O			LFOOT_CGM_2.3A			LFOOT_CGM_2.3L			LFOOT_CGM_2.3P			LTOES_CGM_2.3O			LTOES_CGM_2.3A			LTOES_CGM_2.3L			LTOES_CGM_2.3P			RFEMUR_CGM_2.3O			RFEMUR_CGM_2.3A			RFEMUR_CGM_2.3L			RFEMUR_CGM_2.3P			RTIBIA_CGM_2.3O			RTIBIA_CGM_2.3A			RTIBIA_CGM_2.3L			RTIBIA_CGM_2.3P			RFOOT_CGM_2.3O			RFOOT_CGM_2.3A			RFOOT_CGM_2.3L			RFOOT_CGM_2.3P			RTOES_CGM_2.3O			RTOES_CGM_2.3A			RTOES_CGM_2.3L			RTOES_CGM_2.3P			LHipAngles			LKneeAngles			LAbsAnkleAngle			LAnkleAngles			RHipAngles			RKneeAngles			RAnkleAngles			RAbsAnkleAngle			LPelvisAngles			RPelvisAngles			LFootProgressAngles			RFootProgressAngles			LHipAngles_CGM_2.3			LKneeAngles_CGM_2.3			LAnkleAngles_CGM_2.3			RHipAngles_CGM_2.3			RKneeAngles_CGM_2.3			RAnkleAngles_CGM_2.3			LFootProgressAngles_CGM_2.3			RFootProgressAngles_CGM_2.3			LPelvisAngles_CGM_2.3			RPelvisAngles_CGM_2.3			LHJC_CGM_2.3			LKJC_CGM_2.3			RHJC_CGM_2.3			RKJC_CGM_2.3			LAJC_CGM_2.3			RAJC_CGM_2.3			
		X1	Y1	Z1	X2	Y2	Z2	X3	Y3	Z3	X4	Y4	Z4	X5	Y5	Z5	X6	Y6	Z6	X7	Y7	Z7	X8	Y8	Z8	X9	Y9	Z9	X10	Y10	Z10	X11	Y11	Z11	X12	Y12	Z12	X13	Y13	Z13	X14	Y14	Z14	X15	Y15	Z15	X16	Y16	Z16	X17	Y17	Z17	X18	Y18	Z18	X19	Y19	Z19	X20	Y20	Z20	X21	Y21	Z21	X22	Y22	Z22	X23	Y23	Z23	X24	Y24	Z24	X25	Y25	Z25	X26	Y26	Z26	X27	Y27	Z27	X28	Y28	Z28	X29	Y29	Z29	X30	Y30	Z30	X31	Y31	Z31	X32	Y32	Z32	X33	Y33	Z33	X34	Y34	Z34	X35	Y35	Z35	X36	Y36	Z36	X37	Y37	Z37	X38	Y38	Z38	X39	Y39	Z39	X40	Y40	Z40	X41	Y41	Z41	X42	Y42	Z42	X43	Y43	Z43	X44	Y44	Z44	X45	Y45	Z45	X46	Y46	Z46	X47	Y47	Z47	X48	Y48	Z48	X49	Y49	Z49	X50	Y50	Z50	X51	Y51	Z51	X52	Y52	Z52	X53	Y53	Z53	X54	Y54	Z54	X55	Y55	Z55	X56	Y56	Z56	X57	Y57	Z57	X58	Y58	Z58	X59	Y59	Z59	X60	Y60	Z60	X61	Y61	Z61	X62	Y62	Z62	X63	Y63	Z63	X64	Y64	Z64	X65	Y65	Z65	X66	Y66	Z66	X67	Y67	Z67	X68	Y68	Z68	X69	Y69	Z69	X70	Y70	Z70	X71	Y71	Z71	X72	Y72	Z72	X73	Y73	Z73	X74	Y74	Z74	X75	Y75	Z75	X76	Y76	Z76	X77	Y77	Z77	X78	Y78	Z78	X79	Y79	Z79	X80	Y80	Z80	X81	Y81	Z81	X82	Y82	Z82	X83	Y83	Z83	X84	Y84	Z84	X85	Y85	Z85	X86	Y86	Z86	X87	Y87	Z87	X88	Y88	Z88	X89	Y89	Z89	X90	Y90	Z90	X91	Y91	Z91	X92	Y92	Z92	X93	Y93	Z93	X94	Y94	Z94	X95	Y95	Z95	X96	Y96	Z96	X97	Y97	Z97	X98	Y98	Z98	X99	Y99	Z99	X100	Y100	Z100	X101	Y101	Z101	X102	Y102	Z102	X103	Y103	Z103	X104	Y104	Z104	X105	Y105	Z105	X106	Y106	Z106	X107	Y107	Z107	X108	Y108	Z108	X109	Y109	Z109	X110	Y110	Z110	X111	Y111	Z111	X112	Y112	Z112	X113	Y113	Z113	X114	Y114	Z114	X115	Y115	Z115	X116	Y116	Z116	X117	Y117	Z117	X118	Y118	Z118	X119	Y119	Z119	X120	Y120	Z120	X121	Y121	Z121	X122	Y122	Z122	X123	Y123	Z123	X124	Y124	Z124	X125	Y125	Z125	X126	Y126	Z126	X127	Y127	Z127	X128	Y128	Z128	

53	0.52	313.1303100585939	988.891235351563	311.6367187500001	315.2978515625001	977.9382324218755	49.13293457031253	508.8733520507815	991.771850585938	231.352752685547	510.6575927734377	988.9392700195317	129.0047149658204	344.1905822753907	651.7722778320315	369.4431762695314	259.6441955566407	787.2160034179692	314.2418518066407	241.0733642578126	623.4500122070315	308.3134155273439	327.1871032714845	490.9786682128909	363.2236328125001	304.9358520507814	470.0071716308596	238.7345581054689	401.7041320800784	263.1072998046876	365.8360595703126	289.4885253906251	376.6513671875001	295.5386657714845	348.0276489257814	208.0030059814454	291.2286071777345	431.0601501464846	88.22038269042972	348.4699707031251	391.7911376953127	92.98311614990237	264.6416320800782	466.0840759277346	57.83689880371097	299.2544555664064	277.7639160156251	56.11137390136722	339.1156616210939	353.769256591797	686.5457153320315	-2.347897291183473	259.6060180664064	778.6633911132817	65.88105773925784	245.4075927734376	612.253845214844	67.69773101806643	315.5596923828126	474.5933227539065	25.6521453857422	293.9484863281251	468.701354980469	140.3984985351563	373.8960571289064	302.6172790527345	10.19393157958985	310.4717407226564	317.2501220703126	100.4341278076172	345.2292480468751	184.4154815673829	90.71810150146487	420.011901855469	78.5790710449219	44.83048629760744	390.5520629882815	93.42200469970706	130.5949096679688	463.4572753906252	50.52222442626956	95.28520202636722	274.4462280273439	47.47278213500978	65.56241607666018	358.6621704101564	896.5889282226567	184.3746795654297	196.6425323486329	890.785034179688	183.2790527343751	357.3247070312501	903.3475952148442	346.3555297851564	352.9092102050782	1058.471313476563	177.5726318359376	314.7525634765626	486.6934814453127	306.7345275878907	-90.1222839355469	540.087585449219	391.8063659667971	404.1842346191409	517.5134887695315	713.0150146484377	360.4703979492189	899.2598266601567	265.3741149902345	412.8433532714846	90.42980957031253	309.5821533203126	68.19427490234378	6.241477966308597	466.2483825683596	564.3286132812502	130.4777832031251	664.3544921875002	319.6543273925782	466.8916015625002	306.8768615722657	286.6761474609376	78.47559356689456	349.8562927246095	281.0761718750001	263.1938781738282	331.3957519531251	324.7604064941407	97.69484710693365	530.6135864257815	468.3660278320315	80.14032745361331	311.3985290527345	226.1128234863282	77.92067718505862	362.675506591797	224.2461395263673	139.4934387207032	356.5220336914064	238.8075714111329	84.32707214355472	422.9279479980471	286.6761169433595	78.47561645507815	349.8562622070314	302.5000000000001	473.3872985839846	81.63643646240237	-107.4013671875001	531.2458496093752	-12.73651885986329	206.0659637451173	464.481628417969	495.0299987792971	356.8539123535157	893.9179687500005	103.3752212524415	406.2261352539065	85.52484893798831	84.96412658691409	52.33865356445315	-10.01642608642578	-20.06037902832032	303.978729248047	61.32559967041018	451.5081176757815	307.7185363769532	453.8736572265627	81.80384826660159	279.0698852539064	72.20709228515628	52.09001541137698	274.396209716797	256.200653076172	62.93351745605472	250.6638183593751	60.77064895629886	233.9013214111329	461.1805419921877	75.14520263671878	80.72768402099612	218.3663330078126	71.22772216796878	42.5441246032715	216.8084411621095	132.5588989257813	46.1586380004883	208.8976287841798	67.41555786132815	103.1478729248047	279.0698852539064	72.20709228515628	52.09003448486331	367.5780029296876	910.6680297851567	185.5339965820313	207.1574859619142	904.8292846679692	184.5122833251954	366.316375732422	917.2654418945317	345.9234008789064	361.7863769531251	1070.9560546875	178.8951873779297	317.0549926757814	481.4630126953127	306.6570129394532	-110.0506591796876	538.4829101562502	372.8071594238282	387.8006286621096	513.744079589844	735.6083984375002	368.2620849609376	912.453735351563	265.7770385742189	412.976013183594	90.48549652099612	309.5109863281251	54.76757812500003	3.786483764648439	471.5055847167971	569.686462402344	131.622299194336	678.0511474609377	317.0551757812501	481.4628601074221	306.6571350097657	281.7030029296876	76.53220367431643	325.4979858398439	277.9234008789064	261.9672851562501	315.8758239746095	319.8245849609376	86.7262878417969	506.9803771972659	463.4321899414065	78.2504806518555	287.2280578613282	221.1260070800782	75.95950317382815	338.2550048828126	219.8661346435548	137.7711181640626	335.0476074218751	233.8331909179689	79.35752868652347	398.7490844726565	281.7023315429689	76.53226470947268	325.4983825683595	304.915985107422	471.726013183594	81.98539733886722	-125.8820495605469	536.8151855468752	6.706359863281254	227.0548553466798	459.5695495605471	517.049011230469	366.8932189941407	908.8828125000005	105.2920989990235	406.2510070800784	85.57270050048831	84.8674011230469	35.14804077148439	-12.63175201416016	-24.81146240234376	299.4579467773439	60.413200378418	468.7335510253909	304.9158935546876	471.725280761719	81.98494720458987	270.3489990234376	70.57679748535159	75.87660217285159	266.4974975585939	261.8613281250001	80.19118499755862	240.8386840820314	65.7190856933594	264.897186279297	459.392761230469	73.71562194824222	105.4711990356446	207.3339996337892	69.53029632568362	66.0121994018555	206.0501708984376	133.2917480468751	67.45039367675784	197.4972381591798	67.91105651855472	129.0189819335938	270.3485107421876	70.57656860351565	75.87705230712893	-3.367238998413088	-12.56055068969727	8.308802604675297	0.7683224678039555	-10.77139663696289	20.85881805419923	0	0	12.99805927276612	0.007593182846903804	11.1323823928833	13.25180625915528	-5.243401527404787	-12.08135700225831	9.463644981384281	-1.738862156867982	-2.989231109619142	22.5237216949463	0.006094155833125118	6.669440269470218	14.04649639129639	0	0	13.94951152801514	2.404555082321168	0.3875498473644259	2.035315275192262	-2.404555082321168	-0.3875498473644259	2.035315275192262	-5.831319332122805	-11.95075130462647	-89.47502899169925	-3.413171768188478	-8.935672760009769	-89.07568359375003	-3.094540119171144	-9.492730140686039	8.798919677734379	1.50551998615265	-13.63139915466309	21.06999969482423	-2.72656011581421	11.13969993591309	13.11880016326905	-5.290160179138185	-9.036990165710453	10.20269966125489	-0.6303369998931887	-5.731669902801515	23.01359748840333	-2.072819948196412	6.694890022277836	13.74510002136231	3.035010099411013	-168.1080017089844	-90.54169464111331	1.307890057563782	-171.1040039062501	-90.95140075683597	177.645004272461	0.4506469666957857	-177.9140014648438	-177.645004272461	-0.4506469666957857	-177.9140014648438	368.2630004882814	912.453979492188	265.7770080566407	317.0549926757814	481.4630126953127	306.6570129394532	366.8930053710939	908.8820190429692	105.2919998168946	304.915985107422	471.726013183594	81.98539733886722	412.976013183594	90.48549652099612	309.5109863281251	406.2510070800784	85.57270050048831	84.8674011230469	
54	0.53	313.1719055175782	988.8941040039067	311.5612182617189	315.2753295898439	977.9472045898442	49.08071517944339	508.898376464844	991.8154907226567	231.3159637451173	510.7071228027346	988.9489135742192	128.9934387207032	344.2199707031251	651.787536621094	369.4093017578126	259.6403198242189	787.230346679688	314.202362060547	241.1794891357423	623.5187988281252	308.2696838378907	327.2265625000001	490.9255676269534	363.1698608398439	304.969451904297	470.0198364257815	238.6695251464845	401.6651916503909	263.0984802246095	365.780975341797	289.6299438476564	376.6109313964845	295.6001281738282	348.0398559570314	208.0341949462892	291.2386474609376	431.0428466796877	88.20007324218753	348.4679260253907	391.8269653320315	92.99243164062503	264.6113891601564	466.0699462890627	57.82902526855472	299.2639160156251	277.7752075195314	56.11880111694339	339.1202697753907	353.8174743652345	686.552185058594	-2.388650417327882	259.576629638672	778.694458007813	65.83037567138675	245.4571533203126	612.2379150390627	67.64207458496097	315.5975036621095	474.6015930175784	25.59040260314943	293.9805603027345	468.7083435058596	140.3315887451172	373.9343872070314	302.6466674804689	10.18847274780274	310.4845275878907	317.2625122070314	100.4209671020508	345.1679992675782	184.3925018310547	90.77378082275393	419.9959716796877	78.58586883544925	44.83395767211915	390.5474853515627	93.41239166259768	130.5745086669922	463.458923339844	50.50735473632815	95.26014709472659	274.4625244140626	47.46365356445314	65.54675292968753	358.6798095703126	896.5983886718755	184.2982177734376	196.6603546142579	890.7812500000005	183.242416381836	357.3817138671876	903.3539428710942	346.279510498047	352.9118652343751	1058.48046875	177.5005950927735	314.8154602050782	486.6347351074221	306.6760253906251	-90.16348266601565	539.9949340820315	391.5928649902346	404.0925292968752	517.5003051757815	713.0540771484377	360.5078125000001	899.2678833007817	265.2972412109376	412.8515319824221	90.42313385009768	309.5689086914064	68.14175415039065	6.272232055664066	465.964782714844	564.068786621094	130.4300537109376	664.3908691406252	319.7152099609376	466.8323974609377	306.8206176757814	286.6833496093751	78.47812652587893	349.8427124023439	281.1006469726564	263.1981201171876	331.3943786621095	324.7700805664064	97.68190002441412	530.6010742187502	468.3732910156252	80.12836456298831	311.3843994140626	226.120086669922	77.92805480957034	362.6621398925782	224.2591857910157	139.5013732910157	356.5126953125001	238.8156585693361	84.32930755615237	422.9149475097659	286.6833801269532	78.47813415527347	349.8427124023439	302.5086669921876	473.4003601074221	81.567985534668	-107.3395080566407	531.2513427734377	-13.02243041992188	205.8602752685548	464.5300903320315	494.908142089844	356.8517456054689	893.928833007813	103.299171447754	406.2112121582034	85.52613067626956	84.96890258789065	52.31744384765628	-10.01224517822266	-20.05887603759766	303.9417114257814	61.39716339111331	451.517517089844	307.7259216308595	453.8865356445315	81.73907470703128	279.0531311035157	72.20977783203128	52.10144042968753	274.3902587890626	256.2055053710939	62.912467956543	250.6525421142579	60.80720901489261	233.9157562255861	461.164978027344	75.14263916015628	80.73245239257815	218.3491821289064	71.23216247558597	42.55776596069337	216.794891357422	132.5640563964844	46.16144943237306	208.8823242187501	67.43129730224612	103.1625289916993	279.0531005859376	72.20978546142581	52.10144042968753	367.5979919433595	910.681030273438	185.4960021972657	207.177703857422	904.8350219726567	184.4788665771485	366.3405151367189	917.281616210938	345.8853149414064	361.7989501953126	1070.96875	178.8541564941407	317.134002685547	481.4729919433596	306.634002685547	-109.9934082031251	538.4334106445315	372.6944885253907	387.7882995605471	513.7907714843752	735.5976562500002	368.2852478027345	912.4688110351567	265.7380371093751	412.9649963378909	90.4736022949219	309.5100097656251	54.75152587890628	3.869689941406252	471.5444030761721	569.7187500000002	131.6036834716797	678.0325317382815	317.1336364746095	481.4727783203127	306.6339111328126	281.6919860839845	76.53040313720706	325.5060119628907	277.9252014160157	261.9653320312501	315.8761291503907	319.8249511718751	86.72947692871097	506.9857177734377	463.4190063476565	78.23389434814456	287.225311279297	221.1159973144532	75.96260070800784	338.2659912109376	219.8603973388673	137.7741699218751	335.0560302734376	233.8269653320314	79.36228942871097	398.7591552734377	281.691619873047	76.53043365478518	325.5057678222657	304.9440002441407	471.7359924316409	81.94380187988284	-125.8450012207032	536.8174438476565	6.60660552978516	227.0250701904298	459.5832519531252	516.9971923828127	366.9111633300782	908.8941040039067	105.2537918090821	406.2340087890627	85.57170104980472	84.90019989013675	35.13800048828126	-12.60565948486329	-24.82634735107423	299.3736877441407	60.48134231567386	468.752136230469	304.9444580078126	471.7357177734377	81.94373321533206	270.3359985351564	70.56629943847659	75.85320281982425	266.470916748047	261.8511047363282	80.14601898193362	240.7459259033204	65.72670745849612	264.861785888672	459.3670043945315	73.71990966796878	105.5275650024415	207.3260040283204	69.51480102539065	65.96209716796878	206.0376434326173	133.2763366699219	67.3930358886719	197.4626617431642	67.9016036987305	128.9648895263672	270.3362731933595	70.56600189208987	75.85353851318362	-3.368413686752321	-12.52267646789551	8.31037521362305	0.7743090391159062	-10.75368595123291	20.84747314453126	0	0	12.99557876586915	0.007618662435561422	11.0924129486084	13.24744415283204	-5.243112564086916	-12.12569332122803	9.466202735900882	-1.74003040790558	-2.961811780929566	22.5200481414795	0.00616021174937487	6.674098491668705	14.04635524749757	0	0	13.94923210144044	2.402976989746095	0.3734362423419954	2.040598630905152	-2.402976989746095	-0.3734362423419954	2.040598630905152	-5.827470779418947	-11.95091342926026	-89.47961425781253	-3.402904510498049	-8.933580398559574	-89.0773620605469	-3.095279932022097	-9.479220390319828	8.794260025024418	1.512230038642884	-13.64869976043702	21.04929924011231	-2.724989891052247	11.1427001953125	13.10959911346436	-5.291920185089113	-9.045969963073734	10.20390033721924	-0.6210029721260073	-5.731629848480226	23.00749969482423	-2.068000078201295	6.680870056152347	13.73429965972901	3.037450075149538	-168.1049957275391	-90.5371017456055	1.301169872283936	-171.0800018310547	-90.95610046386722	177.6430053710938	0.4491980075836184	-177.9109954833985	-177.6430053710938	-0.4491980075836184	-177.9109954833985	368.2850036621095	912.4689941406255	265.738006591797	317.134002685547	481.4729919433596	306.634002685547	366.9110107421876	908.8939819335942	105.2539978027344	304.9440002441407	471.7359924316409	81.94380187988284	412.9649963378909	90.4736022949219	309.5100097656251	406.2340087890627	85.57170104980472	84.90019989013675	
55	0.54	313.1474609375001	988.9187622070317	311.5009765625001	315.3369750976564	977.9522094726567	49.0711479187012	508.8901977539065	991.7961425781255	231.2786865234376	510.6777343750002	988.9168090820317	128.9132843017579	344.2292480468751	651.8126220703127	369.3762817382814	259.6597290039064	787.2540893554692	314.1592712402345	241.1960906982423	623.5444335937502	308.2012329101564	327.280731201172	490.9420166015627	363.1421813964845	305.0010070800782	470.0327453613284	238.6776885986329	401.7288818359377	263.1267089843751	365.7543334960939	289.6324157714845	376.624481201172	295.5170898437501	348.0486145019532	208.0346832275392	291.2216796875001	431.0308532714846	88.19987487792972	348.456268310547	391.8397521972659	93.01287841796878	264.6113891601564	466.0848693847659	57.83084487915042	299.258514404297	277.7529296875001	56.11996841430667	339.0982055664064	353.8441467285157	686.5545654296877	-2.406636476516725	259.6649169921876	778.6575317382817	65.80319976806643	245.4434509277345	612.3012695312502	67.57276153564456	315.5919494628907	474.6213073730471	25.57667732238771	293.9770507812501	468.7254943847659	140.3162536621094	373.9631652832032	302.6295166015626	10.17364406585694	310.9537658691407	317.0911560058595	100.3401718139649	345.1926269531251	184.4093780517579	90.80410003662112	420.0089416503909	78.61077117919925	44.84424972534181	390.7207031250002	93.38926696777347	130.5884399414063	463.4268493652346	50.52958679199222	95.2511901855469	274.4435424804689	47.4612159729004	65.5591735839844	358.6813354492189	896.6054077148442	184.2853240966797	196.6612091064454	890.8175659179692	183.1753997802735	357.3298950195314	903.3743286132817	346.2656250000001	352.9450683593751	1058.487915039063	177.4726257324219	314.887176513672	486.6485290527346	306.644744873047	-90.11782836914065	539.9006347656252	391.4418945312502	404.0354003906252	517.5321044921877	713.0364990234377	360.4825439453126	899.2812500000005	265.2848205566407	412.8471679687502	90.43299102783206	309.5542907714845	68.1014099121094	6.346214294433597	465.8696594238284	563.9901123046877	130.4072265625001	664.3958740234377	319.7832946777345	466.8452453613284	306.7901306152345	286.673797607422	78.48662567138675	349.8114318847657	281.0962524414064	263.2081909179689	331.3776245117189	324.7383728027345	97.67491912841803	530.576110839844	468.3684692382815	80.1371994018555	311.3758239746095	226.1088867187501	77.93643188476565	362.6233215332032	224.2496948242189	139.5103149414063	356.4786987304689	238.797088623047	84.33255004882815	422.8782043457034	286.6737670898439	78.48662567138675	349.8114318847657	302.4915771484376	473.4226074218752	81.55161285400393	-107.3155517578126	531.3203735351565	-13.11991119384766	205.7613525390626	464.5716552734377	494.8572998046877	356.8801269531251	893.9296875000005	103.2859039306641	406.2909240722659	85.53273773193362	85.00520324707034	52.22085571289065	-10.14639282226563	-19.44615173339844	304.5707092285157	61.57781982421878	451.7603759765627	307.7131347656251	453.9101867675784	81.7253341674805	279.1305236816407	72.19338226318362	52.15592193603518	274.458465576172	256.194061279297	62.87823104858401	250.7473449707032	60.87734222412112	233.9783325195314	461.244812011719	75.15020751953128	80.76870727539065	218.4257659912111	71.20777130126956	42.61832809448244	216.8683929443361	132.5413360595704	46.19242477416994	208.9646911621095	67.43575286865237	103.2257843017579	279.1304931640626	72.19338989257815	52.15593338012698	367.5939941406251	910.7000122070317	185.4499969482422	207.1727142333986	904.8834838867192	184.418930053711	366.323455810547	917.3104858398442	345.8388061523439	361.8250427246095	1070.988403320313	178.7979583740235	317.1770019531251	481.4890136718752	306.5809936523439	-109.9607849121094	538.3929443359377	372.6231079101564	387.808044433594	513.811462402344	735.5482177734377	368.2737731933595	912.4919433593755	265.6918945312501	412.9620056152346	90.47920227050784	309.4970092773439	54.75201416015628	3.937927246093752	471.5725708007815	569.7521972656252	131.6354064941407	678.0010986328127	317.177215576172	481.4895019531252	306.5814819335939	281.6870117187501	76.53359985351565	325.4800109863282	277.9167785644532	261.9679565429689	315.8406372070314	319.8010864257814	86.74250793457034	506.9631347656252	463.417907714844	78.23957061767581	287.2179260253907	221.1100006103517	75.96489715576175	338.2340087890626	219.8532562255861	137.7762756347657	335.0208740234376	233.8146820068361	79.36785888671878	398.7283325195315	281.6868896484376	76.53355407714847	325.4799804687501	305.0679931640626	471.7330017089846	81.90119934082034	-125.7668457031251	536.6900024414065	6.719039916992191	227.3064880371095	459.5389099121096	516.9815063476565	366.9139099121095	908.9083862304692	105.2076568603516	406.289001464844	85.55090332031253	84.88220214843753	35.06784057617189	-12.59302520751954	-24.45049285888673	299.7990722656251	60.60258483886722	468.8464050292971	305.0676269531251	471.7326660156252	81.90153503417972	270.3850097656251	70.57920074462893	75.87319946289065	266.5695800781251	261.8653869628907	80.14721679687503	240.845672607422	65.76670074462893	264.8903808593751	459.4249572753909	73.68797302246097	105.4952545166016	207.3719940185548	69.54280090332034	65.99909973144534	206.1001892089845	133.3047943115235	67.42377471923831	197.5255584716798	67.93863677978518	129.0047607421876	270.3852539062501	70.57905578613284	75.87310791015628	-3.363163471221926	-12.52488803863526	8.284884452819828	0.7810433506965642	-10.75845623016358	20.82303619384766	0	0	12.98512744903565	0.007702444680035118	11.08798789978028	13.23657321929932	-5.245814323425295	-12.11776065826417	9.463330268859867	-1.741113305091859	-2.859764099121095	22.54026031494141	0.00628793798387051	6.59170770645142	14.05051422119141	0	0	13.95574092864991	2.408312797546388	0.3925906121730807	2.029417276382447	-2.408312797546388	-0.3925906121730807	2.029417276382447	-5.82272243499756	-11.94376945495606	-89.47952270507815	-3.374908924102785	-8.927845954895023	-89.06980895996097	-3.091309785842897	-9.48147010803223	8.77604961395264	1.509209990501405	-13.65830039978028	21.03429985046387	-2.72578001022339	11.15429973602295	13.10169982910157	-5.294529914855959	-9.021080017089847	10.17770004272461	-0.6053720116615298	-5.691909313201906	22.98259925842286	-2.057470083236695	6.640369892120365	13.73779964447022	3.040369987487795	-168.1109924316407	-90.53790283203128	1.295549988746644	-171.0950012207032	-90.94229888916018	177.6399993896485	0.4538829922676089	-177.9219818115235	-177.6399993896485	-0.4538829922676089	-177.9219818115235	368.2739868164064	912.4929809570317	265.6919860839845	317.1770019531251	481.4890136718752	306.5809936523439	366.9140014648439	908.9080200195317	105.2080001831055	305.0679931640626	471.7330017089846	81.90119934082034	412.9620056152346	90.47920227050784	309.4970092773439	406.289001464844	85.55090332031253	84.88220214843753	
